<svg width="28" height="28" viewBox="0 0 28 28" fill="none" xmlns="http://www.w3.org/2000/svg">
<path d="M18.1663 9.62866L9.83301 9.62866" stroke="#131B23" stroke-width="1.25" stroke-linecap="round" stroke-linejoin="round"/>
<path d="M18.1663 12.9622L9.83301 12.9622" stroke="#131B23" stroke-width="1.25" stroke-linecap="round" stroke-linejoin="round"/>
<path d="M13.9997 16.2954L9.83301 16.2954" stroke="#131B23" stroke-width="1.25" stroke-linecap="round" stroke-linejoin="round"/>
<path d="M19.8333 5.46216H8.16667C7.24619 5.46216 6.5 6.20835 6.5 7.12883V19.7574C6.5 20.9118 7.6451 21.7166 8.7312 21.3256L10.0327 20.8571C10.4393 20.7107 10.887 20.728 11.2811 20.9053L13.3161 21.821C13.751 22.0168 14.249 22.0168 14.6839 21.821L16.7189 20.9053C17.113 20.728 17.5607 20.7107 17.9673 20.8571L19.2688 21.3256C20.3549 21.7166 21.5 20.9118 21.5 19.7574V7.12882C21.5 6.20835 20.7538 5.46216 19.8333 5.46216Z" stroke="#131B23" stroke-width="1.25" stroke-linecap="round"/>
</svg>
